<svg width="59" height="68" viewBox="0 0 59 68" fill="none" xmlns="http://www.w3.org/2000/svg">
<path d="M0.569151 58.2735C1.91445 60.6085 2.24959 62.6151 1.66392 67.0317C2.77518 62.6585 3.52908 60.6792 5.38614 59.0034" stroke="#E5E4E2" stroke-width="1.31373"/>
<path d="M2.39377 58.7115C2.39377 59.0339 2.65518 59.2953 2.97765 59.2953C3.30011 59.2953 3.56153 59.0339 3.56153 58.7115C3.56153 58.389 3.30011 58.1276 2.97765 58.1276C2.65518 58.1276 2.39377 58.389 2.39377 58.7115ZM1.88288 65.2801L1.99086 65.2981L3.08564 58.7295L2.97765 58.7115L2.86966 58.6935L1.77489 65.2621L1.88288 65.2801Z" fill="#E5E4E2"/>
<path d="M0.656861 58.6191C2.97462 55.472 3.14153 52.832 2.97423 47.7637" stroke="#E5E4E2" stroke-width="1.31373"/>
<path d="M5.47688 59.2918C4.01807 55.6658 4.51545 53.0677 5.94264 48.2017" stroke="#E5E4E2" stroke-width="1.31373"/>
<path d="M2.97765 47.9827C3.66794 41.4671 4.94316 37.9526 10.641 32.218C15.9631 27.0306 20.5452 24.7777 32.0986 22.1461C43.029 17.9214 46.354 13.1344 46.9875 0.0317192" stroke="#E5E4E2" stroke-width="1.31373"/>
<path d="M5.82405 48.6396C7.44313 44.9343 9.06954 43.2903 16.9907 43.3847C32.504 43.5474 39.9637 42.6496 48.5201 37.2539C55.0676 33.8931 57.0942 28.238 58.1541 12.2932" stroke="#E5E4E2" stroke-width="1.31373"/>
<path d="M3.1966 46.45C5.57064 38.1784 11.079 37.6919 22.6835 35.0644C31.9744 33.1431 36.2435 31.6972 42.8273 28.7147C52.8738 24.2991 54.8687 20.1108 58.1541 12.5121" stroke="#E5E4E2" stroke-width="1.31373"/>
<path d="M46.9875 0.250673C50.2818 13.418 49.8548 19.9603 42.3894 29.1526" stroke="#E5E4E2" stroke-width="1.31373"/>
<path d="M0.538391 58.4076C0.538391 58.414 0.541993 58.4316 0.547451 58.4602C0.549307 58.4746 0.549307 58.4885 0.543344 58.5016C0.537381 58.5148 0.525456 58.5267 0.499525 58.5478" stroke="#E5E4E2" stroke-width="0.875817" stroke-linecap="round" stroke-linejoin="round"/>
<path d="M5.10211 59.159C5.24537 59.173 5.32274 59.18 5.38626 59.1923C5.42606 59.2 5.46324 59.2118 5.4818 59.2041C5.48905 59.2011 5.46994 59.1812 5.47203 59.1667C5.52293 59.1188 5.5642 59.0994 5.59334 59.0835C5.6051 59.0737 5.61074 59.0603 5.61654 59.0465" stroke="#E5E4E2" stroke-width="0.875817" stroke-linecap="round" stroke-linejoin="round"/>
</svg>
